<svg width="92.000000" height="32.000000" viewBox="0 0 92 32" fill="none" xmlns="http://www.w3.org/2000/svg" xmlns:xlink="http://www.w3.org/1999/xlink">
	<desc>
			Created with Pixso.
	</desc>
	<defs>
		<clipPath id="clip42_309">
			<rect id="Frame" rx="0.000000" width="91.000000" height="31.000000" transform="translate(0.500000 0.500000)" fill="white" fill-opacity="0"/>
		</clipPath>
	</defs>
	<rect id="Frame" rx="0.000000" width="91.000000" height="31.000000" transform="translate(0.500000 0.500000)" fill="#FFFFFF" fill-opacity="0"/>
	<g clip-path="url(#clip42_309)">
		<path id="Vector" d="M26.05 26.1C26.56 26.1 26.99 26.27 27.33 26.62C27.68 26.96 27.85 27.39 27.85 27.9C27.85 28.41 27.68 28.83 27.33 29.18C26.99 29.52 26.56 29.7 26.05 29.7L24.94 29.7L24.94 31.57L24.05 31.57L24.05 26.1L26.05 26.1L26.05 26.1ZM26.05 28.85C26.58 28.85 26.96 28.45 26.96 27.9C26.96 27.34 26.58 26.94 26.05 26.94L24.94 26.94L24.94 28.85L26.05 28.85L26.05 28.85Z" fill="#103559" fill-opacity="1.000000" fill-rule="nonzero"/>
		<path id="Vector" d="M29.19 30.01C29.32 30.56 29.82 30.86 30.5 30.86C30.97 30.86 31.32 30.7 31.56 30.41L32.29 30.79C31.89 31.31 31.29 31.57 30.5 31.57C29.84 31.57 29.29 31.39 28.88 31.04C28.48 30.68 28.27 30.23 28.27 29.68C28.27 29.13 28.48 28.69 28.88 28.33C29.28 27.96 29.8 27.78 30.43 27.78C31.03 27.78 31.52 27.97 31.91 28.34C32.29 28.71 32.49 29.16 32.49 29.69C32.49 29.77 32.48 29.88 32.46 30.01L29.2 30.01L29.19 30.01ZM31.6 29.37C31.47 28.79 31 28.49 30.42 28.49C29.77 28.49 29.31 28.83 29.19 29.37L31.6 29.37Z" fill="#103559" fill-opacity="1.000000" fill-rule="nonzero"/>
		<path id="Vector" d="M35.02 28.43L34.05 28.43L34.05 30.31C34.05 30.81 34.38 30.81 35.02 30.78L35.02 31.54C33.73 31.7 33.21 31.34 33.21 30.32L33.21 28.44L32.49 28.44L32.49 27.62L33.21 27.62L33.21 26.77L34.05 26.52L34.05 27.62L35.02 27.62L35.02 28.44L35.02 28.43Z" fill="#103559" fill-opacity="1.000000" fill-rule="nonzero"/>
		<path id="Vector" d="M37.1 29.34C37.67 29.46 38.41 29.69 38.4 30.46C38.4 30.81 38.26 31.08 37.98 31.28C37.71 31.48 37.37 31.57 36.96 31.57C36.22 31.57 35.68 31.26 35.44 30.73L36.13 30.34C36.26 30.69 36.53 30.86 36.95 30.86C37.37 30.86 37.58 30.73 37.58 30.46C37.58 30.23 37.27 30.09 36.88 30C36.32 29.86 35.58 29.65 35.59 28.89C35.59 28.55 35.72 28.29 35.98 28.09C36.24 27.88 36.57 27.78 36.95 27.78C37.56 27.78 38.06 28.07 38.32 28.54L37.64 28.91C37.52 28.63 37.28 28.49 36.95 28.49C36.65 28.49 36.41 28.62 36.41 28.88C36.41 29.12 36.72 29.24 37.1 29.35L37.1 29.34Z" fill="#103559" fill-opacity="1.000000" fill-rule="nonzero"/>
		<path id="Vector" d="M43.46 26.91C42.8 26.85 42.47 27.11 42.47 27.66L42.47 27.74L43.46 27.74L43.46 28.54L42.47 28.54L42.47 31.57L41.57 31.57L41.57 28.54L40.93 28.54L40.93 27.74L41.57 27.74L41.57 27.66C41.57 26.61 42.22 26.04 43.46 26.11L43.46 26.91Z" fill="#103559" fill-opacity="1.000000" fill-rule="nonzero"/>
		<path id="Vector" d="M44.5 31.03C44.09 30.66 43.88 30.21 43.88 29.68C43.88 29.15 44.09 28.7 44.5 28.33C44.91 27.96 45.41 27.78 46 27.78C46.58 27.78 47.08 27.96 47.49 28.33C47.9 28.7 48.11 29.15 48.11 29.68C48.11 30.21 47.9 30.66 47.49 31.03C47.08 31.39 46.59 31.57 46 31.57C45.4 31.57 44.91 31.39 44.5 31.03ZM46 30.82C46.35 30.82 46.64 30.71 46.88 30.49C47.12 30.28 47.24 30 47.24 29.68C47.24 29.35 47.12 29.08 46.88 28.87C46.64 28.65 46.35 28.54 46 28.54C45.64 28.54 45.35 28.65 45.11 28.87C44.87 29.08 44.75 29.35 44.75 29.68C44.75 30 44.87 30.28 45.11 30.49C45.35 30.71 45.64 30.82 46 30.82Z" fill="#103559" fill-opacity="1.000000" fill-rule="nonzero"/>
		<path id="Vector" d="M49.4 28.48C49.62 28.02 50.03 27.78 50.64 27.78L50.64 28.65C50.31 28.63 50.02 28.71 49.77 28.88C49.52 29.04 49.4 29.32 49.4 29.7L49.4 31.57L48.53 31.57L48.53 27.85L49.4 27.85L49.4 28.48Z" fill="#103559" fill-opacity="1.000000" fill-rule="nonzero"/>
		<path id="Vector" d="M56.97 30.01C56.97 30.46 56.82 30.83 56.51 31.13C56.21 31.43 55.84 31.57 55.41 31.57L53.17 31.57L53.17 26.1L55.24 26.1C55.66 26.1 56.03 26.25 56.32 26.54C56.62 26.83 56.77 27.19 56.77 27.62C56.77 28.09 56.59 28.46 56.24 28.73C56.69 28.98 56.96 29.44 56.96 30.01L56.97 30.01ZM54.03 26.95L54.03 28.38L55.24 28.38C55.62 28.38 55.91 28.07 55.91 27.67C55.91 27.26 55.62 26.95 55.24 26.95L54.03 26.95L54.03 26.95ZM55.41 30.73C55.8 30.73 56.11 30.39 56.11 29.96C56.11 29.54 55.8 29.2 55.41 29.2L54.03 29.2L54.03 30.73L55.41 30.73L55.41 30.73Z" fill="#103559" fill-opacity="1.000000" fill-rule="nonzero"/>
		<path id="Vector" d="M58.73 30.01C58.86 30.56 59.36 30.86 60.04 30.86C60.51 30.86 60.86 30.7 61.1 30.41L61.83 30.79C61.43 31.31 60.83 31.57 60.04 31.57C59.38 31.57 58.83 31.39 58.43 31.04C58.02 30.68 57.81 30.23 57.81 29.68C57.81 29.13 58.02 28.69 58.42 28.33C58.82 27.96 59.34 27.78 59.97 27.78C60.57 27.78 61.06 27.97 61.45 28.34C61.84 28.71 62.03 29.16 62.03 29.69C62.03 29.77 62.02 29.88 62 30.01L58.74 30.01L58.73 30.01ZM61.13 29.37C61.01 28.79 60.54 28.49 59.96 28.49C59.31 28.49 58.85 28.83 58.73 29.37L61.14 29.37L61.13 29.37Z" fill="#103559" fill-opacity="1.000000" fill-rule="nonzero"/>
		<path id="Vector" d="M63.69 29.34C64.26 29.46 65 29.69 64.99 30.46C64.99 30.81 64.84 31.08 64.57 31.28C64.3 31.48 63.96 31.57 63.54 31.57C62.81 31.57 62.27 31.26 62.03 30.73L62.72 30.34C62.84 30.69 63.12 30.86 63.54 30.86C63.96 30.86 64.17 30.73 64.17 30.46C64.17 30.23 63.86 30.09 63.47 30C62.91 29.86 62.16 29.65 62.18 28.89C62.18 28.55 62.3 28.29 62.57 28.09C62.82 27.88 63.15 27.78 63.53 27.78C64.15 27.78 64.64 28.07 64.91 28.54L64.23 28.91C64.11 28.63 63.87 28.49 63.53 28.49C63.23 28.49 63 28.62 63 28.88C63 29.12 63.31 29.24 63.69 29.35L63.69 29.34Z" fill="#103559" fill-opacity="1.000000" fill-rule="nonzero"/>
		<path id="Vector" d="M67.94 28.43L66.97 28.43L66.97 30.31C66.97 30.81 67.3 30.81 67.94 30.78L67.94 31.54C66.65 31.7 66.13 31.34 66.13 30.32L66.13 28.44L65.41 28.44L65.41 27.62L66.13 27.62L66.13 26.77L66.97 26.52L66.97 27.62L67.94 27.62L67.94 28.44L67.94 28.43Z" fill="#103559" fill-opacity="1.000000" fill-rule="nonzero"/>
		<path id="Vector" d="M19.99 2.57C19.88 1.48 19.44 1.26 18.59 1.26L14.97 1.26C14.17 1.26 13.98 1.39 13.68 2.27L10.97 11.09L8.25 2.27C7.95 1.39 7.76 1.26 6.97 1.26L3.34 1.26C2.49 1.26 2.06 1.48 1.94 2.57L0.02 19.89C-0.06 20.52 0 20.77 0.55 20.85L4.69 21.45C5.32 21.53 5.46 21.39 5.54 20.93L6.44 12.81L8.39 20.41C8.58 21.04 8.83 21.29 9.46 21.29L12.48 21.29C13.1 21.29 13.35 21.04 13.55 20.41L15.47 12.81L16.4 20.93C16.48 21.39 16.62 21.53 17.25 21.45L21.39 20.85C21.94 20.77 21.99 20.52 21.91 19.89L19.99 2.57Z" fill="#103559" fill-opacity="1.000000" fill-rule="nonzero"/>
		<path id="Vector" d="M29.96 5.89C25.31 5.89 22.78 9.08 22.78 13.47C22.78 17.86 25.31 21.05 29.96 21.05C34.61 21.05 37.13 17.86 37.13 13.47C37.13 9.08 34.61 5.89 29.96 5.89ZM29.96 16.09C28.84 16.09 28.24 15.05 28.24 13.46C28.24 11.88 28.84 10.84 29.96 10.84C31.07 10.84 31.67 11.88 31.67 13.46C31.67 15.05 31.07 16.09 29.96 16.09Z" fill="#103559" fill-opacity="1.000000" fill-rule="nonzero"/>
		<path id="Vector" d="M47.56 5.9C46.6 5.9 39.47 6.09 39.01 6.74C38.82 6.96 38.82 7.26 38.82 7.77L39.04 19.61C39.07 20.69 39.31 21.05 40.26 21.05L43.58 21.05C44.54 21.05 44.81 20.69 44.81 19.61L44.81 11.43C45.22 11.3 45.35 11.25 45.82 11.22C46.44 11.19 46.74 11.38 46.93 11.89C47.07 12.44 47.1 13.25 47.1 14.36L47.07 19.6C47.07 20.69 47.37 21.04 48.32 21.04L51.73 21.04C52.68 21.04 52.92 20.69 52.95 19.6L53.17 12.38C53.19 10.61 52.81 8.99 51.92 7.79C50.96 6.6 49.55 5.89 47.56 5.89L47.56 5.9Z" fill="#103559" fill-opacity="1.000000" fill-rule="nonzero"/>
		<path id="Vector" d="M60.33 7.57L56.91 7.57C55.97 7.57 55.7 7.9 55.7 8.98L55.7 19.61C55.7 20.7 55.97 21.05 56.91 21.05L60.38 21.05C61.32 21.05 61.61 20.7 61.61 19.61L61.56 8.98C61.56 7.93 61.26 7.57 60.33 7.57Z" fill="#103559" fill-opacity="1.000000" fill-rule="nonzero"/>
		<path id="Vector" d="M58.87 0.42C56.84 0.42 55.7 1.66 55.7 3.36C55.7 5.06 56.84 6.31 58.87 6.31C60.89 6.31 62.03 5.06 62.03 3.36C62.03 1.66 60.89 0.42 58.87 0.42Z" fill="#103559" fill-opacity="1.000000" fill-rule="nonzero"/>
		<path id="Vector" d="M73.55 6.33L71.45 6.33L71.45 2.67C71.45 1.59 71.17 1.26 70.21 1.26L66.94 1.26C65.97 1.26 65.67 1.61 65.67 2.67L65.67 6.33L64.01 6.33C63.1 6.33 62.88 6.49 62.88 7.34L62.88 10.29C62.88 11.13 63.1 11.3 64.01 11.3L65.67 11.3L65.67 16.45C65.67 19.92 67.52 21.47 71.01 21.47C72.03 21.47 73.06 21.39 74.02 21.2C74.44 21.12 74.55 21.01 74.55 20.6L74.41 16.45C74.41 16.09 74.22 15.96 73.86 16.04C73.56 16.12 73.25 16.17 72.84 16.17C72.04 16.17 71.45 15.9 71.45 14.74L71.45 11.29L73.56 11.29C74.47 11.29 74.69 11.13 74.69 10.29L74.69 7.33C74.69 6.49 74.47 6.32 73.56 6.32L73.55 6.33Z" fill="#103559" fill-opacity="1.000000" fill-rule="nonzero"/>
		<path id="Vector" d="M82.71 5.89C78.06 5.89 75.54 9.08 75.54 13.47C75.54 17.86 78.06 21.05 82.71 21.05C87.36 21.05 89.88 17.86 89.88 13.47C89.88 9.08 87.36 5.89 82.71 5.89ZM82.71 16.09C81.59 16.09 81 15.05 81 13.46C81 11.88 81.59 10.84 82.71 10.84C83.83 10.84 84.42 11.88 84.42 13.46C84.42 15.05 83.83 16.09 82.71 16.09Z" fill="#103559" fill-opacity="1.000000" fill-rule="nonzero"/>
		<path id="Vector" d="M91.22 6.48C90.73 6.13 89.93 6.33 89.43 6.94C88.92 7.54 88.91 8.31 89.39 8.66C89.88 9.02 90.68 8.81 91.19 8.21C91.69 7.61 91.7 6.84 91.22 6.48Z" fill="#103559" fill-opacity="1.000000" fill-rule="nonzero"/>
		<path id="Vector" d="M79.74 5.46C80.32 5.37 80.69 4.65 80.58 3.84C80.47 3.03 79.92 2.44 79.35 2.53C78.77 2.62 78.4 3.34 78.51 4.15C78.62 4.96 79.17 5.55 79.74 5.46Z" fill="#103559" fill-opacity="1.000000" fill-rule="nonzero"/>
		<path id="Vector" d="M87.17 6.2C87.96 6.6 89.16 5.85 89.85 4.51C90.53 3.18 90.44 1.77 89.65 1.37C88.85 0.96 87.65 1.72 86.97 3.06C86.29 4.39 86.37 5.8 87.17 6.2Z" fill="#103559" fill-opacity="1.000000" fill-rule="nonzero"/>
		<path id="Vector" d="M83.06 5.04C83.86 5.14 84.64 4.1 84.79 2.71C84.95 1.31 84.43 0.1 83.62 0C82.82 -0.1 82.05 0.95 81.89 2.34C81.74 3.73 82.26 4.94 83.06 5.04Z" fill="#103559" fill-opacity="1.000000" fill-rule="nonzero"/>
	</g>
</svg>
