<svg width="42.000000" height="38.000000" viewBox="0 0 42 38" fill="none" xmlns="http://www.w3.org/2000/svg" xmlns:xlink="http://www.w3.org/1999/xlink">
	<desc>
			Created with Pixso.
	</desc>
	<defs/>
	<path id="Vector" d="M22.31 8.51L22.31 8.56C22.31 9.52 22.48 10.47 22.81 11.37L22.79 11.31C23.11 12.2 23.65 12.98 24.37 13.6L24.38 13.6C25.06 14.2 25.96 14.57 26.95 14.57L27.03 14.57L27.03 14.57C28.34 14.56 29.59 14.05 30.52 13.15C31.53 12.23 32.32 11.11 32.82 9.85L32.84 9.79C33.33 8.61 33.59 7.34 33.6 6.06L33.6 6.01C33.6 5.02 33.42 4.07 33.1 3.19L33.12 3.25C32.8 2.37 32.26 1.58 31.54 0.97L31.53 0.96C30.8 0.32 29.85 -0.03 28.87 0L28.87 0C27.56 0 26.31 0.51 25.38 1.42C24.38 2.33 23.6 3.45 23.1 4.7L23.08 4.76C22.61 5.87 22.33 7.16 22.32 8.5L22.32 8.51L22.31 8.51ZM30.94 20.46L30.94 20.59C30.94 21.78 31.31 22.95 32.01 23.92L32 23.9C32.32 24.35 32.75 24.72 33.24 24.97C33.74 25.23 34.29 25.36 34.85 25.36L35.01 25.36L35 25.36C36.33 25.34 37.6 24.85 38.58 23.98L38.57 23.99C39.62 23.11 40.46 22.03 41.05 20.82C41.64 19.6 41.96 18.28 41.99 16.93L41.99 16.92L42 16.79C42 15.55 41.6 14.39 40.92 13.45L40.93 13.47C40.6 12.99 40.15 12.61 39.62 12.35C39.1 12.09 38.51 11.97 37.92 12L37.93 12C36.61 12.01 35.34 12.5 34.36 13.37L34.36 13.37C33.32 14.25 32.47 15.33 31.88 16.55C31.3 17.77 30.97 19.1 30.94 20.45L30.94 20.46L30.94 20.46ZM20.99 19.79C18.63 19.92 16.38 20.77 14.54 22.22L14.56 22.2C12.3 23.77 10.36 25.73 8.83 27.98L8.78 28.06C7.39 29.88 6.59 32.06 6.45 34.33L6.45 34.36L6.45 34.5C6.45 35.14 6.61 35.74 6.89 36.27L6.88 36.25C7.15 36.74 7.58 37.13 8.09 37.36L8.11 37.36C8.58 37.58 9.12 37.76 9.69 37.85L9.73 37.86C10.33 37.95 10.93 38 11.54 38L11.66 38L11.65 38C13.31 37.89 14.95 37.5 16.48 36.85L16.38 36.88C17.83 36.26 19.37 35.89 20.94 35.77L20.99 35.77C22.77 35.9 24.42 36.29 25.95 36.91L25.84 36.87C27.44 37.5 29.14 37.87 30.86 37.97L30.9 37.97C33.99 37.97 35.53 36.77 35.53 34.36C35.46 32.67 34.97 31.03 34.09 29.58L34.12 29.62C33.18 27.88 31.99 26.28 30.59 24.85L30.6 24.86C29.24 23.46 27.68 22.26 25.97 21.3L25.87 21.25C24.41 20.35 22.74 19.85 21.02 19.79L21 19.79L20.99 19.79ZM14.96 14.57L15.03 14.57C15.99 14.57 16.91 14.23 17.61 13.6L17.61 13.6C18.32 13 18.86 12.22 19.19 11.35L19.2 11.31C19.52 10.43 19.68 9.5 19.68 8.56L19.68 8.5L19.68 8.51C19.66 7.15 19.39 5.87 18.9 4.69L18.92 4.76C18.42 3.49 17.63 2.35 16.62 1.42L16.61 1.42C15.69 0.51 14.43 0 13.13 0L13.05 0C12.06 0 11.15 0.37 10.47 0.97L10.47 0.96C9.77 1.57 9.22 2.34 8.9 3.22L8.88 3.25C8.58 4.08 8.4 5.03 8.4 6.03L8.4 6.06L8.4 6.06C8.41 7.36 8.68 8.66 9.18 9.86L9.16 9.79C9.66 11.07 10.45 12.21 11.47 13.14L11.48 13.15C12.41 14.05 13.66 14.56 14.97 14.57L14.97 14.57L14.96 14.57ZM4.06 12L3.91 12C2.73 12 1.69 12.58 1.06 13.46L1.06 13.47C0.36 14.45 -0.01 15.61 0 16.8L0 16.93L0 16.93C0.03 18.27 0.35 19.59 0.93 20.81C1.52 22.02 2.36 23.1 3.4 23.98L3.42 23.99C4.39 24.86 5.66 25.35 6.98 25.36L6.99 25.36C7.57 25.39 8.15 25.27 8.67 25.02C9.2 24.76 9.65 24.38 9.98 23.91L9.99 23.9C10.71 22.89 11.08 21.69 11.05 20.46L11.05 20.46C11.02 19.11 10.7 17.79 10.11 16.57C9.52 15.35 8.68 14.26 7.64 13.38L7.63 13.37C6.65 12.5 5.39 12.01 4.07 12L4.06 12L4.06 12Z" fill="#003459" fill-opacity="1.000000" fill-rule="nonzero"/>
	<path id="Vector" d="" fill="#000000" fill-opacity="0" fill-rule="evenodd"/>
</svg>
