<svg width="23.000000" height="23.000000" viewBox="0 0 23 23" fill="none" xmlns="http://www.w3.org/2000/svg" xmlns:xlink="http://www.w3.org/1999/xlink">
	<desc>
			Created with Pixso.
	</desc>
	<defs/>
	<path id="Vector" d="M22.67 21.06L18.41 16.82C20.06 14.76 20.86 12.14 20.65 9.5C20.43 6.86 19.21 4.4 17.24 2.64C15.27 0.87 12.7 -0.07 10.06 0C7.41 0.07 4.9 1.15 3.02 3.03C1.15 4.9 0.07 7.42 0 10.06C-0.07 12.71 0.87 15.28 2.64 17.26C4.4 19.23 6.85 20.45 9.49 20.66C12.13 20.88 14.75 20.08 16.81 18.42L21.04 22.65C21.15 22.76 21.27 22.85 21.41 22.91C21.55 22.96 21.7 23 21.86 23C22.01 23 22.16 22.96 22.3 22.91C22.44 22.85 22.57 22.76 22.67 22.65C22.88 22.44 23 22.15 23 21.86C23 21.56 22.88 21.27 22.67 21.06ZM10.36 18.42C8.77 18.42 7.22 17.95 5.89 17.07C4.57 16.18 3.54 14.92 2.93 13.45C2.32 11.98 2.16 10.36 2.47 8.8C2.78 7.24 3.55 5.8 4.67 4.68C5.8 3.55 7.23 2.78 8.79 2.47C10.35 2.16 11.97 2.32 13.44 2.93C14.91 3.54 16.17 4.57 17.05 5.9C17.94 7.22 18.41 8.78 18.41 10.37C18.41 12.51 17.56 14.55 16.05 16.06C14.54 17.57 12.5 18.42 10.36 18.42Z" fill="#00171F" fill-opacity="1.000000" fill-rule="nonzero"/>
</svg>
